<svg xmlns="http://www.w3.org/2000/svg" viewBox="0 0 1000 750" width="1000" height="750"
     fill="none" stroke-linejoin="round" stroke-linecap="round">
  <!-- LGU pavilion 01 — generated placeholder, not photography -->
  <defs>
    <linearGradient id="k" gradientUnits="userSpaceOnUse" x1="0" y1="0" x2="1000" y2="750">
      <stop offset="0%" stop-color="#fde68a" />
      <stop offset="52%" stop-color="#f59e0b" />
      <stop offset="100%" stop-color="#b45309" />
    </linearGradient>
    <radialGradient id="halo" cx="50%" cy="46%" r="52%">
      <stop offset="0%" stop-color="#f7d377" stop-opacity="0.22" />
      <stop offset="100%" stop-color="#f7d377" stop-opacity="0" />
    </radialGradient>
  </defs>
  <rect width="1000" height="750" fill="#071409" />
  <rect width="1000" height="750" fill="url(#halo)" />
  <!-- The subject sits on its own baseline; the shift lifts it into the
       middle of the shorter canvas without touching the composition's own
       numbers. Backticks are forbidden here: this is inside a template. -->
  <g transform="translate(0 -34)">
  <g stroke="url(#k)" stroke-width="3.4" stroke-opacity="0.95">
    <path d="M211.6 430 L500 296.9 L788.4 430" />
    <path d="M255.7 407.8 L494 407.8 M303.7 385.6 L494 385.6 M351.8 363.4 L494 363.4 M399.9 341.2 L494 341.2 M447.9 319 L494 319" stroke-opacity=".34" stroke-width="1.1" />
    <path d="M326.4 314.3 L500 241.2 L673.6 314.3" />
    <path d="M351.4 302.1 L494 302.1 M380.3 289.9 L494 289.9 M409.2 277.7 L494 277.7 M438.1 265.5 L494 265.5 M467.1 253.4 L494 253.4" stroke-opacity=".34" stroke-width="1.1" />
    <path d="M393.9 261.2 L500 213.6 L606.1 261.2" />
    <path d="M407.6 253.3 L494 253.3 M425.3 245.4 L494 245.4 M443 237.4 L494 237.4 M460.6 229.5 L494 229.5 M478.3 221.6 L494 221.6" stroke-opacity=".34" stroke-width="1.1" />
  </g>
  <g stroke="url(#k)" stroke-width="2.4" stroke-opacity="0.8">
    <path d="M197.6 430 L802.4 430" />
    <path d="M312.4 314.3 L687.6 314.3" />
    <path d="M379.9 261.2 L620.1 261.2" />
  </g>
  <g stroke="#ffffff" stroke-width="2.4" stroke-opacity="0.75">
    <path d="M500 203.1 L500 169.1" />
    <circle cx="500" cy="159.1" r="9" />
  </g>
  <g stroke="url(#k)" stroke-width="2.6" stroke-opacity="0.85">
    <path d="M245.6 438 L245.6 700 M238.6 503.5 L252.6 503.5 M238.6 569 L252.6 569 M238.6 634.5 L252.6 634.5 M372.8 438 L372.8 700 M365.8 503.5 L379.8 503.5 M365.8 569 L379.8 569 M365.8 634.5 L379.8 634.5 M500 438 L500 700 M493 503.5 L507 503.5 M493 569 L507 569 M493 634.5 L507 634.5 M627.2 438 L627.2 700 M620.2 503.5 L634.2 503.5 M620.2 569 L634.2 569 M620.2 634.5 L634.2 634.5 M754.4 438 L754.4 700 M747.4 503.5 L761.4 503.5 M747.4 569 L761.4 569 M747.4 634.5 L761.4 634.5" />
  </g>
  <g stroke="url(#k)" stroke-width="3.8" stroke-opacity="0.9">
    <path d="M185.6 700 L814.4 700" />
  </g>
  <g stroke="url(#k)" stroke-width="1.6" stroke-opacity="0.45">
    <path d="M203.6 722 L796.4 722" />
  </g>
  <g stroke="#ffffff" stroke-width="1.8" stroke-opacity="0.62">
    <path d="M332.6 438 L332.6 467" />
    <ellipse cx="332.6" cy="483" rx="15" ry="19" />
    <path d="M332.6 502 L332.6 513" />
    <path d="M500 438 L500 455.1" />
    <ellipse cx="500" cy="471.1" rx="15" ry="19" />
    <path d="M500 490.1 L500 501.1" />
    <path d="M647.4 438 L647.4 462.5" />
    <ellipse cx="647.4" cy="478.5" rx="15" ry="19" />
    <path d="M647.4 497.5 L647.4 508.5" />
  </g>
  <g stroke="url(#k)" stroke-width="2.2" stroke-opacity="0.8">
    <path d="M404 568 L404 622 L596 622 L596 568 Z" />
  </g>
  <g stroke="#ffffff" stroke-width="1.4" stroke-opacity="0.4">
    <path d="M428 582 L572 582 M428 596 L542 596 M428 610 L512 610" />
  </g>
  <g stroke="url(#k)" stroke-width="1.8" stroke-opacity="0.6">
    <path d="M229.6 700 q18 -30 40 0 Z" />
    <path d="M730.4 700 q22 -36 46 0 Z" />
  </g>
  </g>
</svg>
